<svg width="30" height="28" viewBox="0 0 30 28" fill="none" xmlns="http://www.w3.org/2000/svg">
<path d="M27.4805 0H2.51953C1.81641 0 1.2207 0.354776 0.732422 1.06433C0.244141 1.77388 0 2.59259 0 3.52047V24.4795C0 25.4074 0.244141 26.2261 0.732422 26.9357C1.2207 27.6452 1.81641 28 2.51953 28H27.4805C28.1836 28 28.7793 27.6452 29.2676 26.9357C29.7559 26.2261 30 25.4074 30 24.4795V3.52047C30 2.59259 29.7559 1.77388 29.2676 1.06433C28.7793 0.354776 28.1836 0 27.4805 0ZM25.1367 3.52047L15 11.8713L4.86328 3.52047H25.1367ZM2.51953 24.4795V5.64912L14.3555 15.5556C14.4336 15.6647 14.6484 15.7193 15 15.7193C15.3516 15.7193 15.5664 15.6647 15.6445 15.5556L27.4805 5.64912V24.4795H2.51953Z" fill="white"/>
</svg>
