<svg width="128" height="100" viewBox="0 0 128 100" fill="none" xmlns="http://www.w3.org/2000/svg">
<path d="M109.974 57.3852C105.547 57.4115 101.713 58.5311 98.4977 60.198C97.3105 57.724 96.1233 55.5623 95.9257 53.948C95.7031 52.073 95.431 50.9269 95.7031 48.6876C95.9749 46.4477 97.2116 43.2707 97.2116 43.0102C97.1866 42.7759 96.9393 41.63 94.392 41.604C91.8447 41.578 89.6432 42.1248 89.3959 42.828C89.1485 43.5311 88.6539 45.1457 88.3323 46.8123C87.8871 49.2602 83.2373 57.9321 80.5908 62.4894C79.7252 60.7186 78.9832 59.1561 78.8345 57.9058C78.6122 56.0311 78.3399 54.885 78.6122 52.6457C78.8842 50.4058 80.1209 47.229 80.1209 46.9686C80.0962 46.7342 79.8488 45.5884 77.3016 45.5623C74.7538 45.5363 72.5528 46.0832 72.3055 46.7863C72.0581 47.4894 71.7861 49.1561 71.2419 50.7707C70.7223 52.3852 64.539 66.8644 62.9313 70.6404C62.1151 72.5675 61.3981 74.104 60.8785 75.1457C60.3591 76.1873 60.8537 75.2238 60.8043 75.3279C60.3591 76.2134 60.1117 76.7082 60.1117 76.7082V76.7345C59.7655 77.3855 59.3945 78.0102 59.2211 78.0102C59.0974 78.0102 58.8501 76.2654 59.2705 73.8699C60.1857 68.8436 62.4117 61.0053 62.3872 60.7188C62.3872 60.5886 62.8074 59.2082 60.9524 58.5053C59.1469 57.8022 58.5041 58.974 58.3554 58.974C58.207 58.974 58.0834 59.3907 58.0834 59.3907C58.0834 59.3907 60.0867 50.5628 54.2497 50.5628C50.5892 50.5628 45.5436 54.7556 43.0456 58.5837C41.4626 59.4951 38.0989 61.422 34.5373 63.4795C33.177 64.2608 31.7672 65.0941 30.4316 65.8493L30.1598 65.5363C23.0861 57.5936 10.0022 51.9686 10.5463 41.2915C10.7442 37.4113 12.0303 27.1769 35.6755 14.7811C55.0417 4.62484 70.5494 7.4113 73.2451 13.6092C77.0787 22.4634 64.9594 38.9217 44.8268 41.2915C37.1595 42.203 33.1278 39.078 32.114 37.9061C31.0504 36.6821 30.902 36.63 30.5063 36.8644C29.8632 37.229 30.259 38.3227 30.5063 38.9738C31.0999 40.6144 33.5732 43.5311 37.7779 44.9894C41.4629 46.2655 50.466 46.9686 61.3486 42.5415C73.5421 37.5675 83.0644 23.7655 80.2696 12.229C77.4252 0.484217 58.9248 -3.36995 41.4384 3.16651C31.0255 7.07276 19.7471 13.1665 11.6346 21.1613C1.98864 30.6405 0.45518 38.9217 1.09824 42.3592C3.34921 54.6248 19.4008 62.6196 25.8315 68.5311C25.5099 68.7131 25.2131 68.8954 24.9411 69.0519C21.7258 70.7183 9.48281 77.4634 6.41589 84.5985C2.95324 92.6714 6.96002 98.479 9.63121 99.2602C17.8921 101.682 26.3509 97.3331 30.9265 90.1717C35.4772 83.0102 34.9333 73.7134 32.831 69.4686L32.7565 69.3123L35.2793 67.7498C36.912 66.7342 38.5196 65.7967 39.9292 64.9891C39.1379 67.2548 38.5688 69.9371 38.2723 73.8433C37.926 78.4269 39.7068 84.3641 42.0565 86.7079C43.0953 87.7233 44.3319 87.7496 45.0987 87.7496C47.8193 87.7496 49.056 85.3795 50.4163 82.5412C52.0982 79.0777 53.5822 75.0673 53.5822 75.0673C53.5822 75.0673 51.7272 85.9266 56.7975 85.9266C58.6525 85.9266 60.5075 83.4006 61.3484 82.0985V82.1246C61.3484 82.1246 61.3979 82.0464 61.4968 81.8641C61.6006 81.7026 61.6995 81.5377 61.7936 81.3696V81.3175C62.5356 79.9634 64.1927 76.8644 66.666 71.7342C69.8564 65.1196 72.9235 56.8384 72.9235 56.8384C72.9235 56.8384 73.2203 58.8696 74.1355 62.2029C74.6794 64.1824 75.8665 66.3436 76.7817 68.4529C76.0397 69.5467 75.5945 70.172 75.5945 70.172L75.6192 70.198C75.0259 71.0313 74.3578 71.917 73.6655 72.8022C71.1427 75.9793 68.1253 79.5993 67.7296 80.641C67.2596 81.8647 67.3586 82.7761 68.2737 83.5056C68.9415 84.0264 70.1287 84.1303 71.3901 84.0264C73.6655 83.8699 75.2485 83.2712 76.0399 82.9063C77.2766 82.4376 78.6864 81.7345 80.0467 80.6928C82.52 78.766 84.0288 76.0316 83.8804 72.3858C83.8062 70.3805 83.1878 68.4014 82.4211 66.5264C82.6437 66.1878 82.8665 65.849 83.0889 65.4847C86.9967 59.4688 90.0142 52.8545 90.0142 52.8545C90.0142 52.8545 90.311 54.8858 91.2261 58.2191C91.6958 59.9118 92.6359 61.761 93.4769 63.5839C89.8163 66.735 87.5161 70.3808 86.7247 72.7766C85.2654 77.2037 86.4031 79.2089 88.5549 79.6777C89.5193 79.886 90.9046 79.4173 91.9431 78.9485C93.2293 78.5058 94.7875 77.7503 96.2222 76.6308C98.6956 74.7037 101.07 72.0214 100.946 68.4016C100.872 66.735 100.452 65.0944 99.8828 63.5319C102.999 62.1777 107.03 61.3964 112.15 62.0475C123.157 63.4016 125.333 70.6412 124.913 73.6621C124.493 76.6832 122.192 78.3496 121.425 78.8704C120.659 79.3652 120.411 79.5477 120.486 79.9121C120.584 80.4592 120.931 80.4329 121.599 80.329C122.514 80.1725 127.386 77.855 127.584 72.2824C127.881 65.1199 121.425 57.3074 109.974 57.3852ZM25.0895 87.5154C21.4537 91.7081 16.3339 93.2967 14.1574 91.9425C11.8077 90.5102 12.7226 84.3384 17.1996 79.8852C19.9202 77.1769 23.4571 74.6769 25.782 73.1404C26.3014 72.8019 27.0929 72.3074 28.0327 71.7082C28.1811 71.6043 28.2801 71.5519 28.2801 71.5519C28.4532 71.4477 28.6511 71.3175 28.8489 71.1873C30.5061 77.5415 28.9231 83.1144 25.0895 87.5154ZM51.6777 68.479C50.4163 71.7342 47.7451 80.0936 46.1375 79.6248C44.7521 79.2342 43.9115 72.9061 45.8651 66.6561C46.8545 63.5048 48.9568 59.755 50.1935 58.2964C52.1971 55.9527 54.3734 55.1714 54.9177 56.135C55.5608 57.3852 52.4692 66.4477 51.6777 68.479ZM73.6161 79.5207C73.0719 79.8074 72.5773 80.0154 72.3547 79.8595C72.1815 79.7553 72.577 79.3647 72.577 79.3647C72.577 79.3647 75.3224 76.2657 76.4107 74.8334C77.029 74.0003 77.771 73.0368 78.5625 71.9428V72.2553C78.5627 76.005 75.1495 78.505 73.6161 79.5207ZM90.5333 75.4582C90.1376 75.1457 90.1873 74.1821 91.5227 71.1613C92.0423 69.9634 93.2293 67.9582 95.2821 66.0571C95.5295 66.8384 95.6781 67.5933 95.6531 68.2967C95.6286 72.9842 92.4628 74.729 90.5333 75.4582Z" fill="#CF649A"/>
</svg>
