<svg width="30" height="30" viewBox="0 0 30 30" fill="none" xmlns="http://www.w3.org/2000/svg">
<path d="M28.8 0H1.2C0.53625 0 0 0.53625 0 1.2V28.8C0 29.4638 0.53625 30 1.2 30H28.8C29.4638 30 30 29.4638 30 28.8V1.2C30 0.53625 29.4638 0 28.8 0ZM27.6 27.6H20.6963V18.3825H24.5963L25.1813 13.8563H20.6963V10.965C20.6963 9.6525 21.06 8.76 22.9388 8.76H25.335V4.71C24.9187 4.65375 23.4975 4.53 21.84 4.53C18.3825 4.53 16.0163 6.64125 16.0163 10.515V13.8525H12.1088V18.3787H16.02V27.6H2.4V2.4H27.6V27.6Z" fill="white" fill-opacity="0.9"/>
</svg>
